<svg width="41" height="40" viewBox="0 0 41 40" fill="none" xmlns="http://www.w3.org/2000/svg">
<path d="M37.5567 19.211L20.8449 2.54429C20.6362 2.33735 20.3538 2.22119 20.0595 2.22119C19.7652 2.22119 19.4828 2.33735 19.274 2.54429L2.56233 19.211C2.37981 19.4235 2.28443 19.6969 2.29526 19.9766C2.30609 20.2562 2.42233 20.5215 2.62075 20.7194C2.81917 20.9172 3.08515 21.0332 3.36555 21.044C3.64594 21.0548 3.9201 20.9597 4.13323 20.7776L20.0539 4.89985L35.9746 20.7887C36.1877 20.9708 36.4619 21.0659 36.7423 21.0551C37.0227 21.0443 37.2887 20.9284 37.4871 20.7305C37.6855 20.5326 37.8017 20.2673 37.8126 19.9877C37.8234 19.708 37.728 19.4346 37.5455 19.2221L37.5567 19.211Z" fill="white"/>
<path d="M31.1953 35.5556H25.6248V24.4445H14.4836V35.5556H8.91304V20.0001L6.68481 22.2223V35.5556C6.68481 36.145 6.91957 36.7102 7.33745 37.127C7.75532 37.5437 8.32208 37.7778 8.91304 37.7778H16.7118V26.6667H23.3965V37.7778H31.1953C31.7863 37.7778 32.353 37.5437 32.7709 37.127C33.1888 36.7102 33.4236 36.145 33.4236 35.5556V21.9556L31.1953 19.7334V35.5556Z" fill="white"/>
</svg>
