<svg width="36" height="38" viewBox="0 0 36 38" fill="none" xmlns="http://www.w3.org/2000/svg">
<path d="M32.9991 27.0379V31.8712C33.0008 32.3199 32.9147 32.764 32.7464 33.1751C32.5781 33.5863 32.3313 33.9553 32.0218 34.2586C31.7122 34.562 31.3467 34.7929 30.9488 34.9367C30.5508 35.0804 30.1292 35.1338 29.7108 35.0934C25.0692 34.5547 20.6106 32.8606 16.6934 30.1473C13.0488 27.6737 9.95889 24.3734 7.64301 20.4807C5.09379 16.2776 3.50736 11.4923 3.01224 6.51237C2.97455 6.06685 3.02412 5.61782 3.1578 5.19388C3.29149 4.76994 3.50635 4.38037 3.78871 4.04999C4.07108 3.7196 4.41475 3.45563 4.79786 3.27489C5.18097 3.09414 5.59512 3.00058 6.01394 3.00016H10.5391C11.2712 2.99246 11.9808 3.26934 12.5359 3.77918C13.0909 4.28902 13.4534 4.99704 13.5559 5.77126C13.7469 7.31803 14.1011 8.83676 14.6118 10.2985C14.8147 10.8751 14.8586 11.5018 14.7383 12.1043C14.618 12.7068 14.3386 13.2599 13.933 13.6979L12.0173 15.744C14.1646 19.7775 17.2914 23.1172 21.0677 25.4107L22.9833 23.3645C23.3935 22.9314 23.9112 22.6329 24.4753 22.5044C25.0394 22.3759 25.6262 22.4228 26.1661 22.6396C27.5346 23.185 28.9565 23.5633 30.4046 23.7673C31.1374 23.8777 31.8065 24.2719 32.2849 24.875C32.7633 25.478 33.0174 26.2477 32.9991 27.0379Z" stroke="white" stroke-width="4.16667" stroke-linecap="round" stroke-linejoin="round"/>
</svg>
