<svg width="40" height="40" viewBox="0 0 40 40" fill="none" xmlns="http://www.w3.org/2000/svg">
<path d="M21.2 3.3833C18.8157 3.20974 16.4221 3.55158 14.1817 4.38557C11.9414 5.21956 9.90689 6.52615 8.21652 8.21652C6.52615 9.90689 5.21956 11.9414 4.38557 14.1817C3.55158 16.4221 3.20974 18.8157 3.3833 21.2C3.9833 30.0166 11.6833 36.6666 20.5166 36.6666H26.6666C27.5833 36.6666 28.3333 35.9166 28.3333 35C28.3333 34.0833 27.5833 33.3333 26.6666 33.3333H20.55C14.3333 33.3333 8.6333 29.3 7.0833 23.2833C4.59997 13.6166 13.6 4.59997 23.2666 7.09997C29.3 8.6333 33.3333 14.3333 33.3333 20.55V22.3833C33.3333 23.7 32.15 25 30.8333 25C29.5166 25 28.3333 23.7 28.3333 22.3833V20.3C28.3333 16.1166 25.3666 12.35 21.2333 11.7666C19.9182 11.5711 18.5755 11.6925 17.3168 12.1208C16.0582 12.5491 14.92 13.2719 13.9972 14.229C13.0744 15.1861 12.3935 16.3498 12.0113 17.6232C11.6291 18.8966 11.5567 20.2429 11.8 21.55C12.0923 23.1249 12.8327 24.5821 13.9324 25.7469C15.0321 26.9116 16.4444 27.7344 18 28.1166C21.0666 28.8333 23.9833 27.85 25.9 25.9C27.3833 27.9333 30.35 29 33.0666 27.9166C35.3 27.0333 36.6666 24.75 36.6666 22.35V20.5333C36.6666 11.6833 30.0166 3.9833 21.2 3.3833ZM20 25C17.2333 25 15 22.7666 15 20C15 17.2333 17.2333 15 20 15C22.7666 15 25 17.2333 25 20C25 22.7666 22.7666 25 20 25Z" fill="white"/>
</svg>
